<svg xmlns="http://www.w3.org/2000/svg" version="1.1" xmlns:xlink="http://www.w3.org/1999/xlink" xmlns:svgjs="http://svgjs.dev/svgjs" width="1000" height="1000" viewBox="0 0 1000 1000"><rect width="1000" height="1000" fill="#ffffff"></rect><g transform="matrix(0.7,0,0,0.7,150.07466666666664,317.2052560760498)"><svg viewBox="0 0 375 196" data-background-color="#ffffff" preserveAspectRatio="xMidYMid meet" height="522" width="1000" xmlns="http://www.w3.org/2000/svg" xmlns:xlink="http://www.w3.org/1999/xlink"><g id="tight-bounds" transform="matrix(1,0,0,1,-0.03976036071776434,0.0508204956054783)"><svg viewBox="0 0 375.07952880859375 195.8982696533203" height="195.8982696533203" width="375.07952880859375"><g><svg></svg></g><g><svg viewBox="0 0 375.07952880859375 195.8982696533203" height="195.8982696533203" width="375.07952880859375"><g transform="matrix(1,0,0,1,-10.220239639282227,-30.847640991210938)"><path xmlns="http://www.w3.org/2000/svg" d="M10.22 216.352v-185.504h375.08v185.504l-17.177 0 0-6.201h10.976v-173.102h-362.678v173.102l134.134 0 0 6.201z" fill="#0718c4" fill-rule="nonzero" stroke="none" stroke-width="1" stroke-linecap="butt" stroke-linejoin="miter" stroke-miterlimit="10" stroke-dasharray="" stroke-dashoffset="0" font-family="none" font-weight="none" font-size="none" text-anchor="none" style="mix-blend-mode: normal" data-fill-palette-color="tertiary"></path><g><path xmlns="http://www.w3.org/2000/svg" d="M175.983 200.904c1.231 0 2.308 0.196 3.233 0.588 0.921 0.392 1.773 0.988 2.556 1.789v0l-1.734 1.986c-0.615-0.541-1.231-0.942-1.846-1.202-0.615-0.261-1.277-0.392-1.986-0.392v0c-0.783 0-1.411 0.205-1.885 0.615-0.477 0.41-0.716 0.979-0.716 1.706v0c0 0.485 0.099 0.895 0.297 1.231 0.194 0.336 0.543 0.647 1.046 0.934 0.503 0.291 1.231 0.604 2.181 0.94v0c1.734 0.634 3.026 1.389 3.877 2.265 0.846 0.876 1.27 2.135 1.269 3.776v0c0 1.137-0.27 2.153-0.811 3.048-0.541 0.895-1.318 1.598-2.332 2.109-1.018 0.515-2.208 0.772-3.569 0.772v0c-2.554 0-4.689-0.876-6.404-2.629v0l1.846-2.042c0.709 0.615 1.413 1.081 2.114 1.398 0.697 0.317 1.465 0.475 2.304 0.476v0c0.951 0 1.702-0.261 2.255-0.783 0.548-0.522 0.822-1.24 0.822-2.154v0c0-0.82-0.233-1.469-0.699-1.946-0.466-0.474-1.352-0.934-2.657-1.382v0c-1.864-0.653-3.207-1.426-4.028-2.321-0.82-0.895-1.231-2.042-1.23-3.44v0c0-1.025 0.261-1.945 0.783-2.758 0.522-0.809 1.249-1.443 2.181-1.901 0.932-0.455 1.976-0.682 3.133-0.683zM184.876 205.854h3.496v14.795h-3.496zM186.638 198.415c0.634 0 1.152 0.2 1.555 0.599 0.399 0.403 0.599 0.912 0.599 1.527v0c0 0.615-0.2 1.122-0.599 1.521-0.403 0.403-0.921 0.604-1.555 0.604v0c-0.634 0-1.15-0.201-1.549-0.604-0.403-0.399-0.604-0.906-0.604-1.521v0c0-0.615 0.201-1.124 0.604-1.527 0.399-0.399 0.915-0.599 1.549-0.599zM206.383 205.435c1.063 0 1.92 0.395 2.573 1.186 0.653 0.794 0.979 1.853 0.979 3.177v0 10.851h-3.468v-10.404c0-1.436-0.438-2.153-1.315-2.153v0c-0.466 0-0.895 0.181-1.286 0.542-0.392 0.365-0.774 0.902-1.147 1.611v0 10.404h-3.44v-10.404c0-1.436-0.438-2.153-1.314-2.153v0c-0.485 0-0.923 0.186-1.315 0.559-0.392 0.373-0.764 0.904-1.118 1.594v0 10.404h-3.468v-14.795h3.048l0.252 1.902c1.025-1.548 2.303-2.321 3.831-2.321v0c0.764 0 1.426 0.218 1.986 0.654 0.559 0.44 0.97 1.052 1.231 1.835v0c0.522-0.802 1.106-1.417 1.75-1.846 0.641-0.429 1.382-0.643 2.221-0.643zM220.702 205.435c1.641 0 2.868 0.675 3.681 2.025 0.809 1.354 1.214 3.27 1.213 5.75v0c0 2.387-0.466 4.292-1.398 5.716-0.932 1.428-2.219 2.142-3.859 2.143v0c-1.361 0-2.47-0.531-3.328-1.595v0 6.852l-3.496 0.392v-20.864h3.076l0.168 1.79c1.044-1.473 2.359-2.209 3.943-2.209zM219.36 218.384c0.839 0 1.482-0.406 1.93-1.22 0.447-0.809 0.671-2.118 0.671-3.926v0c0-1.864-0.196-3.188-0.588-3.972-0.392-0.783-0.979-1.175-1.762-1.174v0c-1.007 0-1.874 0.643-2.6 1.93v0 6.879c0.634 0.988 1.417 1.482 2.349 1.483zM231.889 221.069c-1.081 0-1.924-0.317-2.528-0.951-0.608-0.634-0.912-1.52-0.912-2.657v0-17.536l3.496-0.363v17.787c0 0.597 0.252 0.895 0.755 0.895v0c0.242 0 0.475-0.037 0.699-0.112v0l0.699 2.405c-0.615 0.354-1.352 0.531-2.209 0.532zM247.243 205.854l-4.307 14.851c-0.522 1.809-1.355 3.226-2.5 4.251-1.149 1.025-2.692 1.622-4.632 1.79v0l-0.363-2.545c1.268-0.205 2.209-0.569 2.825-1.091 0.615-0.522 1.119-1.342 1.51-2.461v0h-1.259l-4.167-14.795h3.608l2.825 12.474 2.936-12.474zM265.45 216.929c0 0.522 0.075 0.908 0.223 1.158 0.149 0.254 0.392 0.455 0.728 0.604v0l-0.728 2.322c-0.802-0.093-1.449-0.298-1.94-0.616-0.496-0.317-0.865-0.811-1.108-1.482v0c-0.914 1.436-2.237 2.153-3.971 2.154v0c-1.324 0-2.377-0.42-3.161-1.259-0.783-0.839-1.175-1.939-1.174-3.3v0c0-1.603 0.531-2.83 1.594-3.681 1.063-0.846 2.601-1.27 4.614-1.269v0h1.483v-0.923c0-0.932-0.186-1.594-0.56-1.986-0.373-0.392-0.979-0.587-1.817-0.587v0c-0.97 0-2.163 0.252-3.58 0.755v0l-0.811-2.321c1.697-0.709 3.347-1.063 4.95-1.063v0c3.505 0 5.258 1.669 5.258 5.006v0zM259.605 218.524c1.025 0 1.827-0.606 2.405-1.818v0-3.077h-1.119c-2.051 0-3.076 0.876-3.076 2.629v0c0 0.746 0.158 1.309 0.475 1.689 0.317 0.384 0.755 0.576 1.315 0.577zM283.489 205.435c1.063 0 1.92 0.395 2.572 1.186 0.653 0.794 0.979 1.853 0.979 3.177v0 10.851h-3.468v-10.404c0-1.436-0.438-2.153-1.314-2.153v0c-0.466 0-0.895 0.181-1.287 0.542-0.392 0.365-0.774 0.902-1.146 1.611v0 10.404h-3.44v-10.404c0-1.436-0.438-2.153-1.315-2.153v0c-0.485 0-0.923 0.186-1.314 0.559-0.392 0.373-0.764 0.904-1.119 1.594v0 10.404h-3.468v-14.795h3.049l0.251 1.902c1.025-1.548 2.303-2.321 3.832-2.321v0c0.764 0 1.426 0.218 1.986 0.654 0.559 0.44 0.97 1.052 1.23 1.835v0c0.522-0.802 1.106-1.417 1.751-1.846 0.641-0.429 1.382-0.643 2.22-0.643zM300.744 216.929c0 0.522 0.075 0.908 0.224 1.158 0.149 0.254 0.392 0.455 0.727 0.604v0l-0.727 2.322c-0.802-0.093-1.451-0.298-1.947-0.616-0.492-0.317-0.86-0.811-1.101-1.482v0c-0.914 1.436-2.237 2.153-3.972 2.154v0c-1.324 0-2.377-0.42-3.16-1.259-0.783-0.839-1.175-1.939-1.175-3.3v0c0-1.603 0.531-2.83 1.594-3.681 1.063-0.846 2.601-1.27 4.615-1.269v0h1.482v-0.923c0-0.932-0.186-1.594-0.559-1.986-0.373-0.392-0.979-0.587-1.818-0.587v0c-0.97 0-2.163 0.252-3.58 0.755v0l-0.811-2.321c1.697-0.709 3.347-1.063 4.95-1.063v0c3.505 0 5.258 1.669 5.258 5.006v0zM294.899 218.524c1.025 0 1.827-0.606 2.405-1.818v0-3.077h-1.118c-2.051 0-3.076 0.876-3.077 2.629v0c0 0.746 0.158 1.309 0.476 1.689 0.317 0.384 0.755 0.576 1.314 0.577zM303.597 205.854h9.788v2.545l-6.46 9.509h6.572l-0.335 2.741h-10.124v-2.517l6.46-9.537h-5.901zM315.874 205.854h3.496v14.795h-3.496zM317.636 198.415c0.634 0 1.152 0.2 1.555 0.599 0.399 0.403 0.599 0.912 0.599 1.527v0c0 0.615-0.2 1.122-0.599 1.521-0.403 0.403-0.921 0.604-1.555 0.604v0c-0.634 0-1.15-0.201-1.549-0.604-0.403-0.399-0.604-0.906-0.604-1.521v0c0-0.615 0.201-1.124 0.604-1.527 0.399-0.399 0.915-0.599 1.549-0.599zM330.417 205.435c1.175 0 2.098 0.392 2.769 1.175 0.671 0.783 1.007 1.846 1.007 3.188v0 10.851h-3.496v-10.376c0-0.783-0.125-1.339-0.375-1.667-0.254-0.324-0.623-0.487-1.107-0.486v0c-0.503 0-0.97 0.186-1.399 0.559-0.429 0.373-0.848 0.923-1.258 1.65v0 10.32h-3.496v-14.795h3.048l0.252 1.93c0.541-0.764 1.143-1.348 1.807-1.751 0.66-0.399 1.41-0.599 2.248-0.598zM348.624 203.869l0.895 2.741c-0.858 0.354-2.135 0.531-3.832 0.531v0c0.839 0.373 1.464 0.871 1.874 1.493 0.41 0.626 0.615 1.387 0.616 2.283v0c0 1.492-0.494 2.694-1.483 3.607-0.988 0.914-2.321 1.37-3.999 1.371v0c-0.615 0-1.137-0.075-1.566-0.224v0c-0.168 0.131-0.302 0.293-0.403 0.487-0.104 0.198-0.157 0.408-0.157 0.632v0c0 0.336 0.117 0.6 0.353 0.794 0.231 0.198 0.645 0.296 1.242 0.296v0h1.873c1.566 0 2.806 0.392 3.72 1.175 0.914 0.783 1.37 1.781 1.37 2.992v0c0 1.436-0.578 2.573-1.734 3.412-1.156 0.839-2.825 1.259-5.006 1.259v0c-2.293 0-3.9-0.386-4.821-1.158-0.925-0.776-1.387-1.928-1.387-3.457v0h3.132c0 0.783 0.214 1.342 0.643 1.678 0.429 0.336 1.249 0.503 2.461 0.504v0c1.175 0 2.004-0.172 2.489-0.515 0.485-0.347 0.727-0.846 0.728-1.499v0c0-1.212-0.774-1.818-2.322-1.818v0h-1.566c-1.417 0-2.461-0.261-3.132-0.783-0.671-0.522-1.007-1.203-1.007-2.041v0c0-0.522 0.14-1.016 0.419-1.483 0.28-0.466 0.671-0.867 1.175-1.202v0c-0.82-0.485-1.421-1.063-1.801-1.734-0.384-0.671-0.576-1.492-0.576-2.461v0c0-1.603 0.518-2.886 1.555-3.849 1.033-0.958 2.398-1.438 4.094-1.437v0c1.398 0 2.532-0.131 3.401-0.392 0.865-0.261 1.782-0.662 2.752-1.202zM342.527 207.812c-0.727 0-1.281 0.242-1.661 0.727-0.384 0.485-0.576 1.203-0.576 2.154v0c0 0.932 0.196 1.654 0.587 2.164 0.392 0.515 0.942 0.772 1.65 0.772v0c0.764 0 1.333-0.239 1.706-0.716 0.373-0.474 0.559-1.223 0.56-2.248v0c0-1.902-0.755-2.853-2.266-2.853z" fill="#77d4fc" fill-rule="nonzero" stroke="none" stroke-width="1" stroke-linecap="butt" stroke-linejoin="miter" stroke-miterlimit="10" stroke-dasharray="" stroke-dashoffset="0" font-family="none" font-weight="none" font-size="none" text-anchor="none" style="mix-blend-mode: normal" data-fill-palette-color="secondary"></path></g></g><g transform="matrix(1,0,0,1,29.331764404296877,63.567164446750304)"><svg viewBox="0 0 316.416 68.7639407598197" height="68.7639407598197" width="316.416"><g><svg viewBox="0 0 316.416 68.7639407598197" height="68.7639407598197" width="316.416"><g><svg viewBox="0 0 316.416 68.7639407598197" height="68.7639407598197" width="316.416"><g><svg viewBox="0 0 316.416 68.7639407598197" height="68.7639407598197" width="316.416"><g id="textblocktransform"><svg viewBox="0 0 316.416 68.7639407598197" height="68.7639407598197" width="316.416" id="textblock"><g><svg viewBox="0 0 316.416 68.7639407598197" height="68.7639407598197" width="316.416"><g transform="matrix(1,0,0,1,0,0)"><svg width="316.416" viewBox="3.809999942779541 -32.400001525878906 151.65000915527344 32.96000289916992" height="68.7639407598197" data-palette-color="#0718c4"><path d="M19.09-4.54L19.09 0 3.81 0 3.81-4.54 8.84-4.54 8.84-27.29 3.81-27.29 3.81-31.86 19.09-31.86 19.09-27.29 13.89-27.29 13.89-4.54 19.09-4.54ZM49.24-8.74L49.24-8.74Q49.24-6.54 48.5-4.82 47.75-3.1 46.47-1.9 45.19-0.71 43.42-0.07 41.65 0.56 39.65 0.56L39.65 0.56Q37.4 0.56 35.59-0.24 33.79-1.05 32.49-2.91L32.49-2.91 32.49 0 27.95 0 27.95-10.4 32.49-10.4Q32.49-8.84 33.04-7.64 33.59-6.45 34.49-5.63 35.4-4.81 36.59-4.38 37.79-3.96 39.13-3.96L39.13-3.96Q41.4-3.96 42.8-5 44.19-6.05 44.19-8.35L44.19-8.35Q44.19-9.55 43.76-10.4 43.33-11.25 42.54-11.93 41.75-12.6 40.6-13.1 39.45-13.6 37.99-14.16L37.99-14.16Q36.25-14.75 34.52-15.48 32.79-16.21 31.42-17.29 30.05-18.36 29.2-19.93 28.34-21.51 28.34-23.9L28.34-23.9Q28.34-26 29.11-27.58 29.88-29.15 31.16-30.22 32.44-31.3 34.14-31.85 35.84-32.4 37.74-32.4L37.74-32.4Q39.94-32.4 41.51-31.47 43.09-30.54 43.94-29L43.94-29 43.94-31.86 48.48-31.86 48.48-21.95 43.94-21.95Q43.94-24.76 42.47-26.33 40.99-27.91 38.5-27.91L38.5-27.91Q36.3-27.91 34.85-26.88 33.4-25.85 33.4-24L33.4-24Q33.4-23.05 33.77-22.38 34.15-21.7 34.87-21.15 35.59-20.61 36.69-20.13 37.79-19.65 39.23-19.09L39.23-19.09Q41.04-18.46 42.82-17.65 44.6-16.85 46.02-15.67 47.43-14.5 48.34-12.83 49.24-11.16 49.24-8.74ZM78.83 0L73.53 0 71.24-7.59 60.69-7.59 58.44 0 53.14 0 63.08-31.86 68.89-31.86 78.83 0ZM65.99-25.2L62.03-12.06 69.89-12.06 65.99-25.2ZM133.17-16.65L133.17-15.84Q133.17-12.6 132.52-9.64 131.87-6.69 130.4-4.42 128.92-2.15 126.59-0.79 124.26 0.56 120.91 0.56L120.91 0.56Q117.57 0.56 115.25-0.82 112.93-2.2 111.45-4.47 109.98-6.74 109.33-9.72 108.68-12.7 108.68-15.89L108.68-15.89Q108.68-19.09 109.33-22.07 109.98-25.05 111.45-27.34 112.93-29.64 115.25-31.02 117.57-32.4 120.91-32.4L120.91-32.4Q121.87-32.4 122.87-32.13 123.87-31.86 124.77-31.31 125.67-30.76 126.37-29.96 127.07-29.15 127.36-28.1L127.36-28.1 127.36-31.86 131.92-31.86 131.92-20.56 127.36-20.56Q127.36-22.05 126.89-23.38 126.43-24.71 125.58-25.71 124.72-26.71 123.53-27.28 122.33-27.86 120.91-27.86L120.91-27.86Q118.76-27.86 117.4-26.78 116.03-25.71 115.2-24 114.37-22.29 114.04-20.17 113.71-18.04 113.71-15.89L113.71-15.89Q113.71-13.75 114.04-11.62 114.37-9.5 115.18-7.8 115.98-6.1 117.37-5.05 118.76-4 120.91-4L120.91-4Q124.01-4 125.92-5.98 127.82-7.96 128.53-12.11L128.53-12.11 121.82-12.11 121.82-16.65 133.17-16.65ZM155.46-4.54L155.46 0 140.17 0 140.17-4.54 145.3-4.54 145.3-22.66Q144.96-21.46 144.12-20.53 143.27-19.6 142.09-18.98 140.91-18.36 139.45-18.03 138-17.7 136.46-17.7L136.46-17.7 136.46-22.75Q138.12-22.75 139.7-23.3 141.27-23.85 142.52-24.98 143.76-26.1 144.53-27.8 145.3-29.49 145.3-31.86L145.3-31.86 150.35-31.86 150.35-4.54 155.46-4.54Z" opacity="1" transform="matrix(1,0,0,1,0,0)" fill="#0718c4" class="undefined-text-0" data-fill-palette-color="primary" id="text-0"></path></svg></g></svg></g></svg></g></svg></g></svg></g></svg></g></svg></g></svg></g><defs></defs></svg><rect width="375.07952880859375" height="195.8982696533203" fill="none" stroke="none" visibility="hidden"></rect></g></svg></g></svg>